<?xml version="1.0" standalone="no"?>
<!DOCTYPE svg PUBLIC "-//W3C//DTD SVG 20010904//EN"
 "http://www.w3.org/TR/2001/REC-SVG-20010904/DTD/svg10.dtd">
<svg version="1.0" xmlns="http://www.w3.org/2000/svg"
 width="96.000000pt" height="96.000000pt" viewBox="0 0 96.000000 96.000000"
 preserveAspectRatio="xMidYMid meet">

<g transform="translate(0.000000,96.000000) scale(0.100000,-0.100000)"
fill="#000000" stroke="none">
<path d="M458 874 c-5 -4 -8 -17 -8 -28 0 -13 -24 -46 -60 -81 -41 -40 -60
-67 -58 -80 5 -34 38 -30 79 11 l39 38 2 -215 3 -214 25 0 25 0 3 214 2 215
39 -38 c41 -40 73 -45 79 -12 3 12 -16 39 -55 78 -55 56 -56 59 -28 53 142
-31 255 -155 273 -300 6 -55 9 -60 32 -60 24 0 25 2 23 64 -4 130 -95 260
-227 322 -61 28 -174 49 -188 33z"/>
<path d="M180 743 c-18 -20 -47 -67 -64 -103 -28 -59 -31 -74 -31 -161 0 -90
2 -99 37 -171 45 -91 103 -147 196 -191 61 -29 76 -32 163 -32 90 0 99 2 172
38 78 39 120 77 110 103 -9 23 -40 16 -89 -21 -163 -125 -406 -60 -501 133
-24 49 -28 69 -28 142 0 97 18 146 79 219 40 47 43 74 10 79 -14 2 -32 -10
-54 -35z"/>
</g>
</svg>
